<svg width="123" height="50" viewBox="0 0 123 50" fill="none" xmlns="http://www.w3.org/2000/svg">
<path d="M60.1539 46.3284C57.8043 44.9848 46.5999 41.5257 38.6349 39.7181C29.6386 37.6764 22.6874 41.3322 11.691 43.8949C9.72326 44.3535 9.08254 42.7231 8.70299 41.228C7.14622 35.0958 5.96812 29.1869 4.94207 24.0407L4.88441 23.7515C4.46998 22.6114 3.88187 21.4679 3.63928 20.3473C3.3967 19.2267 3.51747 18.1637 3.64189 17.0685M24.8832 26.028C35.0648 18.571 46.3433 12.1848 56.7857 7.93864C73.5137 1.13661 95.557 3.60468 104.207 5.849C107.819 7.52102 111.294 9.01428 114.627 9.93676C116.228 10.3036 117.646 10.4646 119.107 10.6306" stroke="#718828" stroke-width="7" stroke-linecap="round"/>
</svg>
