<svg width="450" height="147" viewBox="0 0 450 147" fill="none" xmlns="http://www.w3.org/2000/svg">
<g clip-path="url(#clip0_1262_1835)">
<path d="M92.35 38.95H43.5C40.65 38.95 38.3 41.25 38.3 44.15C38.3 47.45 38.3 114.15 38.2 115.3C38.1 117.9 36 119.7 33.45 119.6C31 119.5 29.2 117.6 29.1 115.05V34.15C29.1 32.85 29.7 31.75 30.6 30.95C31.35 30.25 32.35 29.8 33.5 29.75H90.1C98.9 29.75 106.05 22.6 106.05 13.8C106.05 5.84998 100.8 0.349976 92.6 0.349976H41.3C18.65 0.349976 0 19 0 41.65V112.85C0 131.25 14.95 146.2 33.35 146.2H34.1C52.5 146.2 67.45 131.25 67.45 112.85C67.45 112.85 67.5 70.75 67.55 70.1C67.65 67.55 69.5 65.65 71.9 65.55C74.45 65.45 76.55 67.25 76.6 69.9C76.6 70.4 76.65 129.3 76.65 129.3C76.65 137.95 83.65 145 92.35 145C100.55 145 105.8 139.5 105.8 131.55V52.4C105.8 44.45 100.55 38.95 92.35 38.95Z" fill="#170E2D"/>
<path d="M221.65 0.75H203.75C195.55 0.75 190.3 6.25 190.3 14.2V131.7C190.3 139.65 195.55 145.15 203.75 145.15H221.65C241.6 145.15 257.75 129 257.75 109.05V36.85C257.75 16.9 241.6 0.75 221.65 0.75ZM228.55 115.45C228.45 118.05 226.35 119.85 223.8 119.75C221.35 119.65 219.55 117.75 219.45 115.2V30.95C219.55 28.4 221.4 26.5 223.8 26.4C226.35 26.3 228.45 28.1 228.5 30.75C228.6 33.35 228.6 112.65 228.5 115.45H228.55Z" fill="#170E2D"/>
<path d="M294 0.449951H279.8C271.6 0.449951 266.35 5.94995 266.35 13.9C266.35 21.85 272.65 28.95 280.7 29.75H307.35C309.9 29.85 311.8 31.6999 311.9 34.0999C312 36.6499 310.2 38.7499 307.55 38.7999C307.2 38.7999 301.35 38.9 301.35 38.9C281.2 38.9 267.75 52.35 267.75 72.75V111.1C267.75 112.1 267.85 114.9 267.85 114.9C268.85 132.4 283.4 146.3 301.15 146.3H301.9C305.15 146.3 308.3 145.85 311.25 144.95L312.6 144.5C325.75 140.05 335.25 127.6 335.25 112.9V41.7C335.35 19.05 316.7 0.449951 294 0.449951ZM306.05 114C305.95 116.6 303.85 118.4 301.3 118.3C298.85 118.2 297.05 116.3 296.95 113.75V70.05C297.05 67.5 298.9 65.6 301.3 65.5C303.85 65.4 305.95 67.2 306 69.85C306.1 73.05 306.1 110.75 306 114H306.05Z" fill="#170E2D"/>
<path d="M357.65 107.3H406.5C409.35 107.3 411.7 105 411.7 102.1V93V38.1C411.7 34.9 411.7 32.1 411.8 30.95C411.9 28.35 414 26.55 416.55 26.65C419 26.75 420.8 28.65 420.9 31.2V38.1V112.15C420.9 113.45 420.3 114.55 419.4 115.35C418.65 116.05 417.65 116.5 416.5 116.55H359.9C351.1 116.55 343.95 123.7 343.95 132.5C343.95 140.45 349.2 145.95 357.4 145.95H408.7C431.4 145.95 450 127.3 450 104.65V33.35C450 14.95 435.05 0 416.65 0H415.9C397.5 0 382.55 14.95 382.55 33.35C382.55 33.35 382.5 75.45 382.45 76.1C382.35 78.65 380.5 80.55 378.1 80.65C375.55 80.75 373.45 78.95 373.4 76.3C373.4 75.8 373.35 16.9 373.35 16.9C373.35 8.25 366.35 1.2 357.65 1.2C349.45 1.2 344.2 6.7 344.2 14.65V93.8C344.2 101.75 349.45 107.25 357.65 107.25V107.3Z" fill="#170E2D"/>
<path d="M143.8 16.7C143.8 8.05 136.8 1 128.1 1C119.9 1 114.65 6.5 114.65 14.45L114.25 112.6C113.9 131 128.6 146.2 147 146.55H147.75C166.15 146.9 181.35 132.25 181.7 113.8L182.1 14.45C182.1 6.5 176.85 1 168.65 1C160 1 152.95 8 152.95 16.7C152.95 16.7 152.95 112.85 152.85 115.65C152.75 118.25 150.65 120.05 148.1 119.95C145.65 119.85 143.85 117.95 143.75 115.4V16.7H143.8Z" fill="#170E2D"/>
</g>
<defs>
<clipPath id="clip0_1262_1835">
<rect width="450" height="146.56" fill="white"/>
</clipPath>
</defs>
</svg>
