<svg xmlns="http://www.w3.org/2000/svg" fill="none" viewBox="0 0 4000 1304" height="1304" width="4000">
<path fill="white" d="M820.889 346.222C820.889 346.222 417.778 346.222 386.667 346.222C361.333 346.222 340.444 366.667 340.444 392.445C340.444 421.778 340.444 1014.67 339.556 1024.89C338.667 1048 320 1064 297.333 1063.11C275.556 1062.22 259.556 1045.33 258.667 1022.67C258.667 1016.89 258.667 304.889 258.667 303.556C258.667 292 264 282.222 272 275.111C278.667 268.889 287.556 264.889 297.778 264.445C298.667 264.445 800.889 264.445 800.889 264.445C879.111 264.445 942.667 200.889 942.667 122.667C942.667 52.0002 896 3.11133 823.111 3.11133H367.111C165.778 3.11133 0 168.889 0 370.222V1003.11C0 1166.67 132.889 1299.56 296.444 1299.56H303.111C466.667 1299.56 599.556 1166.67 599.556 1003.11C599.556 1003.11 600 628.889 600.444 623.111C601.333 600.445 617.778 583.556 639.111 582.667C661.778 581.778 680.444 597.778 680.889 621.333C680.889 625.778 681.333 1149.33 681.333 1149.33C681.333 1226.22 743.555 1288.89 820.889 1288.89C893.778 1288.89 940.444 1240 940.444 1169.33V465.778C940.444 395.111 893.778 346.222 820.889 346.222Z"></path>
<path fill="white" d="M1970.22 6.6665H1811.11C1738.22 6.6665 1691.56 55.5554 1691.56 126.222V1170.67C1691.56 1241.33 1738.22 1290.22 1811.11 1290.22H1970.22C2147.56 1290.22 2291.11 1146.67 2291.11 969.333V327.555C2291.11 150.222 2147.56 6.6665 1970.22 6.6665ZM2031.56 1026.22C2030.67 1049.33 2012 1065.33 1989.33 1064.44C1967.56 1063.56 1951.56 1046.67 1950.67 1024C1950.67 1010.67 1950.67 288.444 1950.67 275.111C1951.56 252.444 1968 235.555 1989.33 234.667C2012 233.778 2030.67 249.778 2031.11 273.333C2032 296.444 2032 1001.33 2031.11 1026.22H2031.56Z"></path>
<path fill="white" d="M2613.33 4H2487.11C2414.22 4 2367.56 52.8889 2367.56 123.556C2367.56 194.222 2423.56 257.333 2495.11 264.444C2508.89 264.444 2718.67 264.444 2732 264.444C2754.67 265.333 2771.56 281.778 2772.44 303.111C2773.33 325.778 2757.33 344.444 2733.78 344.889C2730.67 344.889 2678.67 345.778 2678.67 345.778C2499.56 345.778 2380 465.333 2380 646.667V987.555C2380 996.444 2380.89 1021.33 2380.89 1021.33C2389.78 1176.89 2519.11 1300.44 2676.89 1300.44H2683.56C2712.44 1300.44 2740.44 1296.44 2766.67 1288.44L2778.67 1284.44C2895.56 1244.89 2980 1134.22 2980 1003.56V370.667C2980.89 169.333 2815.11 4 2613.33 4ZM2720.44 1013.78C2719.56 1036.89 2700.89 1052.89 2678.22 1052C2656.44 1051.11 2640.44 1034.22 2639.56 1011.56C2639.56 997.778 2639.56 636.889 2639.56 623.111C2640.44 600.444 2656.89 583.555 2678.22 582.667C2700.89 581.778 2719.56 597.778 2720 621.333C2720.89 649.778 2720.89 984.889 2720 1013.78H2720.44Z"></path>
<path fill="white" d="M3179.11 953.778H3528.89C3550.67 953.778 3582.22 953.778 3613.33 953.778C3638.67 953.778 3659.56 933.333 3659.56 907.556C3659.56 878.222 3659.56 848 3659.56 826.667V338.667C3659.56 310.222 3659.56 285.333 3660.44 275.111C3661.33 252 3680 236 3702.67 236.889C3724.44 237.778 3740.44 254.667 3741.33 277.333C3741.33 283.111 3741.33 309.333 3741.33 338.667C3741.33 338.667 3741.33 995.111 3741.33 996.889C3741.33 1008.44 3736 1018.22 3728 1025.33C3721.33 1031.56 3712.44 1035.56 3702.22 1036C3701.33 1036 3700.89 1036 3700 1036C3682.67 1036 3199.11 1036 3199.11 1036C3120.89 1036 3057.33 1099.56 3057.33 1177.78C3057.33 1248.44 3104 1297.33 3176.89 1297.33H3632.89C3834.67 1297.33 4000 1131.56 4000 930.222V296.444C4000 132.889 3867.11 0 3703.56 0H3696.89C3533.33 0 3400.44 132.889 3400.44 296.444C3400.44 296.444 3400 670.667 3399.56 676.444C3398.67 699.111 3382.22 716 3360.89 716.889C3338.22 717.778 3319.56 701.778 3319.11 678.222C3319.11 673.778 3318.67 150.222 3318.67 150.222C3318.67 73.3333 3256.44 10.6667 3179.11 10.6667C3106.22 10.6667 3059.56 59.5556 3059.56 130.222V833.778C3059.56 904.444 3106.22 953.333 3179.11 953.333V953.778Z"></path>
<path fill="white" d="M1278.22 148.444C1278.22 71.5553 1216 8.88867 1138.67 8.88867C1065.78 8.88867 1019.11 57.7776 1019.11 128.444L1015.56 1000.89C1012.44 1164.44 1143.11 1299.56 1306.67 1302.67H1313.33C1476.89 1305.78 1612 1175.56 1615.11 1011.56L1618.67 128.444C1618.67 57.7776 1572 8.88867 1499.11 8.88867C1422.22 8.88867 1359.56 71.1109 1359.56 148.444C1359.56 148.444 1359.56 1003.11 1358.67 1028C1357.78 1051.11 1339.11 1067.11 1316.44 1066.22C1294.67 1065.33 1278.67 1048.44 1277.78 1025.78C1277.78 1012 1277.78 148.444 1277.78 148.444H1278.22Z"></path>
</svg>
